<?xml version="1.0" encoding="UTF-8" standalone="no"?>
<!-- Generator: Adobe Illustrator 18.0.0, SVG Export Plug-In . SVG Version: 6.00 Build 0)  -->

<svg
   xmlns:dc="http://purl.org/dc/elements/1.1/"
   xmlns:cc="http://creativecommons.org/ns#"
   xmlns:rdf="http://www.w3.org/1999/02/22-rdf-syntax-ns#"
   xmlns:svg="http://www.w3.org/2000/svg"
   xmlns="http://www.w3.org/2000/svg"
   xmlns:sodipodi="http://sodipodi.sourceforge.net/DTD/sodipodi-0.dtd"
   xmlns:inkscape="http://www.inkscape.org/namespaces/inkscape"
   version="1.1"
   id="Capa_1"
   x="0px"
   y="0px"
   viewBox="0 0 380 380"
   style="enable-background:new 0 0 380 380;"
   xml:space="preserve"
   inkscape:version="0.91 r13725"
   sodipodi:docname="global45.svg"><metadata
     id="metadata43"><rdf:RDF><cc:Work
         rdf:about=""><dc:format>image/svg+xml</dc:format><dc:type
           rdf:resource="http://purl.org/dc/dcmitype/StillImage" /></cc:Work></rdf:RDF></metadata><defs
     id="defs41" /><sodipodi:namedview
     pagecolor="#ffffff"
     bordercolor="#666666"
     borderopacity="1"
     objecttolerance="10"
     gridtolerance="10"
     guidetolerance="10"
     inkscape:pageopacity="0"
     inkscape:pageshadow="2"
     inkscape:window-width="1600"
     inkscape:window-height="834"
     id="namedview39"
     showgrid="false"
     inkscape:zoom="1.2421053"
     inkscape:cx="213.19919"
     inkscape:cy="172.10696"
     inkscape:window-x="0"
     inkscape:window-y="27"
     inkscape:window-maximized="1"
     inkscape:current-layer="Capa_1" /><g
     id="g3"
     style="fill:#002255;stroke:#2c89a0"><path
       d="M0,190c0,103.145,83.005,187.26,185.725,189.078v-36.506c-9.667-2.846-20.925-17.289-29.596-38.418   c-3.513-8.553-6.573-17.936-9.159-27.975c12.587,1.246,25.567,1.934,38.755,2.035v-36.027c-15.781-0.133-31.153-1.158-45.759-3.037   c-2.011-15.646-3.057-32.174-3.057-49.15c0-16.975,1.046-33.504,3.057-49.15c14.605-1.879,29.978-2.904,45.759-3.035v-36.029   c-13.188,0.102-26.168,0.789-38.755,2.037c2.586-10.039,5.646-19.422,9.159-27.977c8.671-21.129,19.929-35.57,29.596-38.418V0.922   C83.005,2.742,0,86.856,0,190z M36.022,190c0-10.334,15.285-23.285,38.944-32.992c8.55-3.508,17.937-6.572,27.975-9.16   c-1.354,13.672-2.058,27.795-2.058,42.152c0,14.359,0.703,28.48,2.058,42.152c-10.038-2.586-19.425-5.65-27.975-9.16   C51.308,213.285,36.022,200.334,36.022,190z M48.491,250.492c4.037,2.031,8.297,3.98,12.798,5.826   c14.146,5.805,30.146,10.537,47.412,14.102c3.563,17.267,8.293,33.264,14.102,47.41c1.848,4.504,3.796,8.764,5.827,12.797   C92.775,315.149,63.974,286.346,48.491,250.492z M128.63,49.373c-2.031,4.035-3.979,8.295-5.827,12.797   c-5.809,14.146-10.538,30.143-14.102,47.41c-17.267,3.564-33.267,8.299-47.412,14.102c-4.501,1.848-8.761,3.797-12.798,5.826   C63.974,93.654,92.775,64.854,128.63,49.373z"
       id="path5"
       style="fill:#002255;stroke:#2c89a0" /><path
       d="M368.625,224.088l-22.938-13.023c0.966-6.887,1.478-13.916,1.478-21.064c0-7.146-0.512-14.178-1.478-21.063l22.938-13.023   c10.788-6.125,14.567-19.834,8.442-30.621l-32.601-57.42c-2.939-5.178-7.82-8.979-13.56-10.561   c-5.74-1.588-11.88-0.82-17.059,2.119l-23.007,13.064c-11.734-9.463-24.901-17.219-39.133-22.861V23.258   c0-12.402-10.054-22.459-22.459-22.459h-29.362v88.656c53.796,1.93,96.968,46.287,96.968,100.545s-43.172,98.617-96.968,100.547   v88.654h29.362c12.405,0,22.459-10.055,22.459-22.457v-26.379c14.232-5.643,27.399-13.397,39.133-22.861l23.007,13.065   c3.41,1.935,7.236,2.93,11.09,2.93c1.997,0,4.007-0.266,5.969-0.811c5.74-1.58,10.621-5.383,13.56-10.56l32.601-57.418   C383.192,243.922,379.413,230.211,368.625,224.088z"
       id="path7"
       style="fill:#002255;stroke:#2c89a0" /></g><g
     id="g9" /><g
     id="g11" /><g
     id="g13" /><g
     id="g15" /><g
     id="g17" /><g
     id="g19" /><g
     id="g21" /><g
     id="g23" /><g
     id="g25" /><g
     id="g27" /><g
     id="g29" /><g
     id="g31" /><g
     id="g33" /><g
     id="g35" /><g
     id="g37" /></svg>